<mxfile host="app.diagrams.net" modified="2021-03-20T16:53:22.514Z" agent="5.0 (X11)" etag="vI-44ByoY8-4gJpssBWe" version="14.4.9" type="github">
  <diagram id="xAyW7cyiF8tnfsLZBCAS" name="Page-1">
    <mxGraphModel dx="813" dy="459" grid="1" gridSize="10" guides="1" tooltips="1" connect="1" arrows="1" fold="1" page="1" pageScale="1" pageWidth="850" pageHeight="1100" math="0" shadow="0">
      <root>
        <mxCell id="0" />
        <mxCell id="1" parent="0" />
        <mxCell id="6JoS563KdRZ2OagdMQS3-25" value="" style="rounded=0;whiteSpace=wrap;html=1;strokeColor=#000000;fillColor=none;" parent="1" vertex="1">
          <mxGeometry x="61" y="160" width="1240" height="400" as="geometry" />
        </mxCell>
        <mxCell id="6JoS563KdRZ2OagdMQS3-24" value="" style="rounded=0;whiteSpace=wrap;html=1;strokeColor=#36393d;fillColor=#999999;" parent="1" vertex="1">
          <mxGeometry x="60" y="280" width="1240" height="160" as="geometry" />
        </mxCell>
        <mxCell id="6JoS563KdRZ2OagdMQS3-3" value="" style="endArrow=none;dashed=1;html=1;strokeWidth=5;rounded=0;jumpStyle=arc;flowAnimation=0;strokeColor=#FFFFFF;noJump=0;comic=0;entryX=1;entryY=0.5;entryDx=0;entryDy=0;exitX=0;exitY=0.5;exitDx=0;exitDy=0;" parent="1" source="6JoS563KdRZ2OagdMQS3-24" target="6JoS563KdRZ2OagdMQS3-25" edge="1">
          <mxGeometry width="50" height="50" relative="1" as="geometry">
            <mxPoint x="80" y="360" as="sourcePoint" />
            <mxPoint x="800" y="360" as="targetPoint" />
          </mxGeometry>
        </mxCell>
        <mxCell id="6JoS563KdRZ2OagdMQS3-14" value="" style="endArrow=none;html=1;strokeWidth=3;entryX=1;entryY=0.3;entryDx=0;entryDy=0;exitX=0;exitY=0;exitDx=0;exitDy=0;entryPerimeter=0;" parent="1" source="6JoS563KdRZ2OagdMQS3-24" target="6JoS563KdRZ2OagdMQS3-25" edge="1">
          <mxGeometry width="50" height="50" relative="1" as="geometry">
            <mxPoint x="80" y="280" as="sourcePoint" />
            <mxPoint x="800" y="280" as="targetPoint" />
          </mxGeometry>
        </mxCell>
        <mxCell id="6JoS563KdRZ2OagdMQS3-15" value="" style="endArrow=none;html=1;strokeWidth=3;entryX=0.999;entryY=0.698;entryDx=0;entryDy=0;entryPerimeter=0;exitX=0;exitY=0.701;exitDx=0;exitDy=0;exitPerimeter=0;" parent="1" source="6JoS563KdRZ2OagdMQS3-25" target="6JoS563KdRZ2OagdMQS3-25" edge="1">
          <mxGeometry width="50" height="50" relative="1" as="geometry">
            <mxPoint x="80" y="440" as="sourcePoint" />
            <mxPoint x="800" y="440" as="targetPoint" />
          </mxGeometry>
        </mxCell>
        <mxCell id="6JoS563KdRZ2OagdMQS3-21" value="Reference" style="text;html=1;align=center;verticalAlign=middle;resizable=0;points=[];autosize=1;strokeColor=#000000;" parent="1" vertex="1">
          <mxGeometry x="930" y="220" width="80" height="20" as="geometry" />
        </mxCell>
        <mxCell id="6JoS563KdRZ2OagdMQS3-22" value="" style="endArrow=classic;html=1;strokeColor=#4D4D4D;strokeWidth=1;exitX=0.47;exitY=0.964;exitDx=0;exitDy=0;exitPerimeter=0;" parent="1" edge="1" source="6JoS563KdRZ2OagdMQS3-21">
          <mxGeometry width="50" height="50" relative="1" as="geometry">
            <mxPoint x="1020" y="252" as="sourcePoint" />
            <mxPoint x="968" y="400" as="targetPoint" />
          </mxGeometry>
        </mxCell>
        <mxCell id="uoA4HZfCXWTgyH_c_rxO-3" value="" style="curved=1;endArrow=none;html=1;endFill=0;dashed=1;strokeWidth=2;strokeColor=#FFFFCC;entryX=1;entryY=0.75;entryDx=0;entryDy=0;exitX=0.032;exitY=0.25;exitDx=0;exitDy=0;exitPerimeter=0;" edge="1" parent="1" source="6JoS563KdRZ2OagdMQS3-24" target="6JoS563KdRZ2OagdMQS3-24">
          <mxGeometry width="50" height="50" relative="1" as="geometry">
            <mxPoint x="680" y="320" as="sourcePoint" />
            <mxPoint x="1180" y="400" as="targetPoint" />
            <Array as="points">
              <mxPoint x="230" y="320" />
              <mxPoint x="310" y="370" />
              <mxPoint x="420" y="410" />
            </Array>
          </mxGeometry>
        </mxCell>
        <mxCell id="uoA4HZfCXWTgyH_c_rxO-10" value="" style="group;rotation=0;" vertex="1" connectable="0" parent="1">
          <mxGeometry x="1040" y="390" width="80" height="40" as="geometry" />
        </mxCell>
        <mxCell id="6JoS563KdRZ2OagdMQS3-17" value="Follower1" style="text;html=1;align=center;verticalAlign=middle;resizable=0;points=[];autosize=1;rotation=0;" parent="uoA4HZfCXWTgyH_c_rxO-10" vertex="1">
          <mxGeometry x="1" y="19" width="80" height="20" as="geometry" />
        </mxCell>
        <mxCell id="6JoS563KdRZ2OagdMQS3-5" value="" style="rounded=0;whiteSpace=wrap;html=1;fillColor=#f5f5f5;strokeColor=#666666;fontColor=#333333;rotation=0;" parent="uoA4HZfCXWTgyH_c_rxO-10" vertex="1">
          <mxGeometry x="9" y="1" width="60" height="20" as="geometry" />
        </mxCell>
        <mxCell id="uoA4HZfCXWTgyH_c_rxO-11" value="" style="group" vertex="1" connectable="0" parent="1">
          <mxGeometry x="1241" y="389" width="60" height="39" as="geometry" />
        </mxCell>
        <mxCell id="6JoS563KdRZ2OagdMQS3-16" value="Lead" style="text;html=1;align=center;verticalAlign=middle;resizable=0;points=[];autosize=1;rotation=0;" parent="uoA4HZfCXWTgyH_c_rxO-11" vertex="1">
          <mxGeometry x="3" y="19" width="50" height="20" as="geometry" />
        </mxCell>
        <mxCell id="6JoS563KdRZ2OagdMQS3-4" value="" style="rounded=0;whiteSpace=wrap;html=1;fillColor=#e3c800;strokeColor=#B09500;fontColor=#ffffff;rotation=90;direction=south;" parent="uoA4HZfCXWTgyH_c_rxO-11" vertex="1">
          <mxGeometry x="20" y="-20" width="20" height="60" as="geometry" />
        </mxCell>
        <mxCell id="uoA4HZfCXWTgyH_c_rxO-12" value="" style="group;rotation=15;" vertex="1" connectable="0" parent="1">
          <mxGeometry x="841" y="343" width="80" height="50.01202006699151" as="geometry" />
        </mxCell>
        <mxCell id="uoA4HZfCXWTgyH_c_rxO-14" value="" style="group;rotation=-15;" vertex="1" connectable="0" parent="uoA4HZfCXWTgyH_c_rxO-12">
          <mxGeometry x="0.0047764974120632075" y="39.9961703840337" width="82.45044700517587" height="57.435849682957816" as="geometry" />
        </mxCell>
        <mxCell id="6JoS563KdRZ2OagdMQS3-18" value="Follower2" style="text;html=1;align=center;verticalAlign=middle;resizable=0;points=[];autosize=1;rotation=0;" parent="uoA4HZfCXWTgyH_c_rxO-14" vertex="1">
          <mxGeometry x="3" y="27" width="80" height="20" as="geometry" />
        </mxCell>
        <mxCell id="6JoS563KdRZ2OagdMQS3-6" value="" style="rounded=0;whiteSpace=wrap;html=1;fillColor=#f5f5f5;strokeColor=#666666;fontColor=#333333;rotation=0;" parent="uoA4HZfCXWTgyH_c_rxO-14" vertex="1">
          <mxGeometry x="14" y="6" width="60" height="20" as="geometry" />
        </mxCell>
        <mxCell id="uoA4HZfCXWTgyH_c_rxO-13" value="" style="group" vertex="1" connectable="0" parent="1">
          <mxGeometry x="610" y="390" width="80" height="40" as="geometry" />
        </mxCell>
        <mxCell id="6JoS563KdRZ2OagdMQS3-19" value="Follower3" style="text;html=1;align=center;verticalAlign=middle;resizable=0;points=[];autosize=1;" parent="uoA4HZfCXWTgyH_c_rxO-13" vertex="1">
          <mxGeometry y="20" width="80" height="20" as="geometry" />
        </mxCell>
        <mxCell id="6JoS563KdRZ2OagdMQS3-8" value="" style="rounded=0;whiteSpace=wrap;html=1;fillColor=#f5f5f5;strokeColor=#666666;fontColor=#333333;" parent="uoA4HZfCXWTgyH_c_rxO-13" vertex="1">
          <mxGeometry x="10" width="60" height="20" as="geometry" />
        </mxCell>
        <mxCell id="uoA4HZfCXWTgyH_c_rxO-15" value="" style="group" vertex="1" connectable="0" parent="1">
          <mxGeometry x="670" y="310" width="60" height="40" as="geometry" />
        </mxCell>
        <mxCell id="uoA4HZfCXWTgyH_c_rxO-1" value="" style="rounded=0;whiteSpace=wrap;html=1;fillColor=#e51400;fontColor=#ffffff;strokeColor=#140000;" vertex="1" parent="uoA4HZfCXWTgyH_c_rxO-15">
          <mxGeometry width="60" height="20" as="geometry" />
        </mxCell>
        <mxCell id="uoA4HZfCXWTgyH_c_rxO-8" value="EV" style="text;html=1;align=center;verticalAlign=middle;resizable=0;points=[];autosize=1;" vertex="1" parent="uoA4HZfCXWTgyH_c_rxO-15">
          <mxGeometry x="15" y="20" width="30" height="20" as="geometry" />
        </mxCell>
      </root>
    </mxGraphModel>
  </diagram>
</mxfile>
